<svg width="104" height="98" viewBox="0 0 104 98" fill="none" xmlns="http://www.w3.org/2000/svg">
<path d="M24.4974 0C24.4974 0 -12.8218 26.5575 4.66289 64.2112C22.1476 101.865 94.1506 97.4917 102.35 60.8497C110.558 24.2077 86.8075 11.7653 60.5275 15.8039C34.2474 19.8345 24.4974 0 24.4974 0Z" fill="#6ACCB2"/>
<path d="M37.7885 90.867C37.6335 90.867 37.4785 90.8343 37.3316 90.7772C36.8421 90.5814 36.5321 90.0919 36.5647 89.5615C36.5729 89.431 37.3479 76.1808 29.8743 74.7856C27.9162 74.4185 25.9009 74.239 23.9509 74.0676C19.3492 73.6515 15.0005 73.268 12.7567 70.4369C11.4513 68.7969 11.0271 66.5532 11.4513 63.5915C12.8791 53.5723 20.9484 13.8707 21.2747 12.2797C21.3481 11.7248 21.9438 7.86564 24.7015 5.76063C26.2028 4.61021 28.0385 4.20226 30.1435 4.52862C36.6054 5.53217 73.0516 13.0874 75.5401 13.6096C76.2499 13.6667 80.2234 14.0909 82.4997 16.914C83.8623 18.611 84.3355 20.7813 83.9031 23.3759C82.5976 31.2248 73.4351 75.1446 73.3453 75.5852C72.8476 78.7427 70.8405 84.0134 66.5571 83.4341C62.2736 82.8467 54.2697 80.5622 53.9351 80.4643C53.8699 80.4479 48.7542 78.9712 46.3881 81.5739C43.508 84.7396 38.7676 90.3611 38.7186 90.4182C38.482 90.7119 38.1394 90.867 37.7885 90.867ZM28.781 6.87025C27.7774 6.87025 26.9207 7.14765 26.1864 7.70246C24.1059 9.27715 23.698 12.5897 23.6898 12.6223C23.6898 12.655 23.6816 12.6958 23.6735 12.7284C23.5919 13.1363 15.3105 53.8333 13.8664 63.9423C13.54 66.2024 13.8011 67.8342 14.666 68.9193C16.2488 70.9183 19.9122 71.2528 24.1549 71.6281C26.162 71.8076 28.2425 71.9952 30.3067 72.3787C37.1766 73.6597 38.686 81.6555 38.9715 86.3387C40.6197 84.4051 42.8961 81.7697 44.5686 79.9339C47.9791 76.1808 54.3512 78.041 54.6205 78.1226C54.6857 78.139 62.7795 80.448 66.8916 81.0109C69.8207 81.427 70.9303 75.2099 70.9384 75.1446C71.0445 74.6469 80.1908 30.7679 81.488 22.9761C81.7981 21.1077 81.4962 19.5819 80.5905 18.456C78.8445 16.2857 75.3443 16.0491 75.3117 16.0491C75.2464 16.0491 75.1893 16.0409 75.124 16.0246C74.7324 15.943 36.2465 7.96355 29.7601 6.95184C29.4256 6.90288 29.0992 6.87025 28.781 6.87025Z" fill="#231F20"/>
<path d="M44.9031 97.5164C44.593 97.5164 44.2993 97.4022 44.0708 97.1901L35.7161 89.4227C35.5529 89.2758 35.4387 89.0882 35.3734 88.8761C34.3046 85.3024 28.8544 82.9118 28.2343 82.6507C27.5734 82.4713 22.6209 81.1087 20.6301 80.7089C18.1579 80.2112 14.6251 74.5489 13.2217 72.142C12.8791 71.5545 13.0831 70.8121 13.6624 70.4694C14.2416 70.1267 14.9923 70.3225 15.3349 70.91C17.5134 74.6468 20.214 78.1062 21.1115 78.3102C23.3226 78.7508 28.732 80.2439 28.9604 80.3091C29.0012 80.3173 29.0502 80.3336 29.091 80.3499C29.3765 80.4641 35.9445 83.1403 37.6089 87.8399L44.7073 94.4405C46.3472 92.2702 50.1656 87.8399 54.1962 87.5951C57.6964 87.3748 62.1512 89.0066 65.4148 90.1978C66.6223 90.6384 67.7645 91.0545 68.2377 91.1279L68.3765 91.1524C71.6727 91.6664 76.2091 91.5685 77.539 84.7802C79.285 75.9196 89.1737 34.8881 89.2716 34.472C90.2181 31.0126 90.7566 25.6603 89.035 24.4854C85.8285 22.2988 80.4599 18.2764 80.411 18.2356C79.8725 17.8276 79.7583 17.0607 80.1662 16.5222C80.5742 15.9837 81.3411 15.8695 81.8796 16.2774C81.9367 16.3182 87.2482 20.308 90.4139 22.462C94.167 25.0239 92.0947 33.4195 91.6377 35.0757C91.548 35.451 81.6674 76.4336 79.9377 85.2453C79.0484 89.7572 76.258 94.8566 67.993 93.5675L67.8543 93.543C67.1445 93.4369 66.0675 93.0371 64.5662 92.4905C61.6861 91.438 57.3211 89.847 54.343 90.0346C51.006 90.2468 47.1305 95.1014 45.9148 96.9534C45.719 97.2553 45.3926 97.4511 45.0418 97.5001C45.001 97.5164 44.952 97.5164 44.9031 97.5164Z" fill="#231F20"/>
<path d="M48.33 66.8064C35.2511 66.8064 24.6118 56.1671 24.6118 43.0883C24.6118 30.0094 35.2511 19.3701 48.33 19.3701C61.4088 19.3701 72.0481 30.0094 72.0481 43.0883C72.0481 56.1671 61.4088 66.8064 48.33 66.8064ZM48.33 21.8178C36.6055 21.8178 27.0595 31.3557 27.0595 43.0883C27.0595 54.8127 36.5974 64.3587 48.33 64.3587C60.0544 64.3587 69.6005 54.8209 69.6005 43.0883C69.6005 31.3638 60.0544 21.8178 48.33 21.8178Z" fill="#231F20"/>
<path d="M47.9383 53.8247C47.1469 53.8247 46.2983 53.7513 45.3764 53.5962C39.869 52.658 38.0577 46.8569 37.8619 43.9197C37.8211 43.2425 38.327 42.6632 39.0042 42.6224C39.6814 42.5816 40.2607 43.0875 40.3014 43.7647C40.3178 44.0339 40.8155 50.3408 45.7843 51.1894C50.9408 52.0705 53.16 49.8023 54.6613 47.4607C55.0284 46.8896 55.7872 46.7264 56.3502 47.0854C56.9213 47.4525 57.0845 48.2032 56.7255 48.7743C55.2813 51.0262 52.8582 53.8247 47.9383 53.8247Z" fill="#231F20"/>
<path d="M63.6524 42.3781C62.9915 42.3781 62.4448 41.8478 62.4285 41.1788C62.4285 41.0319 62.2898 37.4501 59.5892 36.879C56.7988 36.2915 55.1589 39.0574 55.0854 39.1798C54.7427 39.7591 53.9921 39.9631 53.4128 39.6204C52.8336 39.2859 52.6296 38.5434 52.9641 37.956C53.0702 37.7765 55.5586 33.5257 60.0869 34.4884C64.6967 35.4593 64.8599 40.9014 64.8681 41.1298C64.8844 41.807 64.3459 42.3618 63.6687 42.3781C63.6687 42.3781 63.6605 42.3781 63.6524 42.3781Z" fill="#231F20"/>
<path d="M44.3726 38.3723C43.7118 38.3723 43.1651 37.842 43.1488 37.1729C43.1488 37.0261 43.0101 33.4443 40.3095 32.8731C37.5273 32.2938 35.8791 35.0516 35.8057 35.174C35.463 35.7533 34.7206 35.9572 34.1331 35.6146C33.5457 35.2719 33.3499 34.5294 33.6844 33.9501C33.7905 33.7706 36.2789 29.5198 40.8072 30.4826C45.417 31.4535 45.5802 36.8955 45.5884 37.124C45.6047 37.8012 45.0662 38.356 44.389 38.3723C44.389 38.3723 44.3808 38.3723 44.3726 38.3723Z" fill="#231F20"/>
<path d="M91.0342 32.873C90.8792 32.873 90.7242 32.8322 90.5855 32.7343L82.0267 27.0801C81.6514 26.8354 81.5453 26.3295 81.7983 25.9542C82.043 25.5789 82.557 25.4728 82.9242 25.7257L91.483 31.3799C91.8583 31.6247 91.9643 32.1305 91.7114 32.5059C91.5645 32.7425 91.3034 32.873 91.0342 32.873Z" fill="#231F20"/>
<path d="M89.4838 39.6689C89.3206 39.6689 89.1574 39.6199 89.0105 39.522L80.411 33.4191C80.0438 33.158 79.9541 32.6522 80.2152 32.285C80.4763 31.9179 80.9821 31.8281 81.3492 32.0892L89.9488 38.1921C90.316 38.4532 90.4057 38.9591 90.1446 39.3262C89.9896 39.5465 89.7367 39.6689 89.4838 39.6689Z" fill="#231F20"/>
<path d="M87.8438 46.5065C87.6643 46.5065 87.4848 46.4494 87.3297 46.327L79.1136 39.6366C78.7628 39.351 78.7138 38.837 78.9994 38.4862C79.285 38.1354 79.799 38.0864 80.1499 38.372L88.366 45.0623C88.7168 45.3479 88.7657 45.8619 88.4801 46.2128C88.317 46.4086 88.0804 46.5065 87.8438 46.5065Z" fill="#231F20"/>
<path d="M86.4975 52.1604C86.3262 52.1604 86.1549 52.1033 86.008 51.9972L77.8817 45.8372C77.5227 45.5679 77.4492 45.0539 77.7266 44.6949C77.9959 44.3359 78.5099 44.2625 78.8689 44.5399L86.9953 50.6999C87.3543 50.9692 87.4277 51.4832 87.1503 51.8422C86.9871 52.0461 86.7423 52.1604 86.4975 52.1604Z" fill="#231F20"/>
<path d="M84.8578 59.0716C84.662 59.0716 84.4661 58.9981 84.3111 58.8594L76.5846 51.859C76.2501 51.5572 76.2256 51.0431 76.5275 50.7086C76.8294 50.3741 77.3434 50.3496 77.6779 50.6515L85.4045 57.6519C85.739 57.9538 85.7635 58.4678 85.4616 58.8023C85.2984 58.9818 85.0781 59.0716 84.8578 59.0716Z" fill="#231F20"/>
<path d="M82.8422 66.3984C82.6546 66.3984 82.4669 66.3332 82.3119 66.2026L74.9525 59.912C74.6099 59.6183 74.5691 59.1043 74.8628 58.7616C75.1565 58.4189 75.6705 58.3781 76.0132 58.6719L83.3726 64.9624C83.7153 65.2562 83.7561 65.7702 83.4623 66.1129C83.2992 66.3005 83.0707 66.3984 82.8422 66.3984Z" fill="#231F20"/>
<path d="M81.5369 73.276C81.3492 73.276 81.1615 73.2107 81.0065 73.0802L73.5492 66.6835C73.2065 66.3898 73.1657 65.8758 73.4595 65.5331C73.7532 65.1904 74.2672 65.1496 74.6099 65.4434L82.0672 71.84C82.4099 72.1337 82.4506 72.6477 82.1569 72.9904C81.9937 73.1862 81.7653 73.276 81.5369 73.276Z" fill="#231F20"/>
<path d="M80.1662 79.2568C79.9785 79.2568 79.7908 79.1916 79.6358 79.061L72.2846 72.7704C71.9419 72.4767 71.9011 71.9627 72.1948 71.62C72.4885 71.2773 73.0025 71.2365 73.3452 71.5303L80.6965 77.8208C81.0391 78.1146 81.0799 78.6286 80.7862 78.9713C80.623 79.1589 80.3946 79.2568 80.1662 79.2568Z" fill="#231F20"/>
<path d="M78.5836 86.5758C78.3551 86.5758 78.1185 86.4778 77.9635 86.2902L70.9875 78.0659C70.6938 77.7233 70.7346 77.2092 71.0854 76.9155C71.4281 76.6218 71.9421 76.6708 72.2358 77.0134L79.2118 85.2377C79.5055 85.5804 79.4647 86.0944 79.1139 86.3881C78.9588 86.5105 78.7712 86.5758 78.5836 86.5758Z" fill="#231F20"/>
<path d="M74.3817 92.5642C74.0798 92.5642 73.7942 92.3928 73.6473 92.1073L68.5806 81.8107C68.3848 81.4027 68.548 80.9213 68.9559 80.7174C69.3557 80.5215 69.8453 80.6847 70.0492 81.0927L75.116 91.3893C75.3118 91.7973 75.1486 92.2786 74.7407 92.4826C74.6264 92.5316 74.5041 92.5642 74.3817 92.5642Z" fill="#231F20"/>
<path d="M66.402 92.6698C66.0185 92.6698 65.6759 92.4005 65.6025 92.0089L63.6443 81.9815C63.5546 81.5409 63.8483 81.1085 64.2889 81.0269C64.7295 80.9371 65.1619 81.2309 65.2435 81.6715L67.2016 91.6988C67.2914 92.1394 66.9976 92.5719 66.557 92.6535C66.5081 92.6698 66.4591 92.6698 66.402 92.6698Z" fill="#231F20"/>
<path d="M59.8831 90.4589C59.4751 90.4589 59.1243 90.1489 59.0754 89.7328L58.0391 80.6192C57.9902 80.1704 58.3084 79.7706 58.7571 79.7135C59.2222 79.6564 59.6057 79.9828 59.6628 80.4315L60.699 89.5451C60.7479 89.9938 60.4297 90.3936 59.981 90.4507C59.9402 90.4589 59.9076 90.4589 59.8831 90.4589Z" fill="#231F20"/>
<path d="M54.2779 89.6351C53.9597 89.6351 53.666 89.4556 53.5273 89.1455L49.203 79.1753C49.0235 78.7591 49.2111 78.2778 49.6272 78.0983C50.0434 77.9188 50.5247 78.1064 50.7042 78.5225L55.0285 88.4928C55.208 88.9089 55.0204 89.3903 54.6043 89.5698C54.4982 89.6187 54.3839 89.6351 54.2779 89.6351Z" fill="#231F20"/>
<path d="M50.6062 91.0871C50.3859 91.0871 50.1574 90.9973 49.9943 90.8178L43.1815 83.2055C42.8797 82.871 42.9123 82.357 43.2468 82.0551C43.5813 81.7532 44.0953 81.7858 44.3972 82.1204L51.2099 89.7327C51.5118 90.0672 51.4792 90.5812 51.1447 90.8831C50.9897 91.0136 50.802 91.0871 50.6062 91.0871Z" fill="#231F20"/>
<path d="M47.1958 94.1633C46.9837 94.1633 46.7716 94.0817 46.6084 93.9185L39.9017 87.0323C39.5916 86.706 39.5916 86.1919 39.918 85.8819C40.2444 85.5719 40.7584 85.5719 41.0684 85.8982L47.7751 92.7844C48.0851 93.1108 48.0851 93.6248 47.7588 93.9348C47.6119 94.0898 47.4079 94.1633 47.1958 94.1633Z" fill="#231F20"/>
<path d="M31.5141 83.8092C31.1143 83.8092 30.7716 83.5154 30.7064 83.1156L29.2867 73.7083C29.2214 73.2596 29.5233 72.8435 29.9721 72.7782C30.429 72.7129 30.8369 73.023 30.9022 73.4636L32.3219 82.8709C32.3871 83.3196 32.0852 83.7357 31.6365 83.801C31.5957 83.8092 31.5549 83.8092 31.5141 83.8092Z" fill="#231F20"/>
<path d="M27.6061 82.0308C27.2308 82.0308 26.8882 81.7697 26.8066 81.3862L25.0361 73.1865C24.9382 72.7459 25.2237 72.3134 25.6643 72.2155C26.1049 72.1176 26.5373 72.4032 26.6352 72.8438L28.4058 81.0436C28.5037 81.4841 28.2181 81.9166 27.7775 82.0145C27.7204 82.0226 27.6633 82.0308 27.6061 82.0308Z" fill="#231F20"/>
<path d="M23.3306 80.905C22.988 80.905 22.6698 80.6847 22.5555 80.3421L20.1078 72.7787C19.9691 72.3463 20.2058 71.8894 20.63 71.7507C21.0624 71.612 21.5194 71.8486 21.6581 72.2728L24.1058 79.8362C24.2445 80.2686 24.0078 80.7255 23.5836 80.8642C23.4938 80.8969 23.4122 80.905 23.3306 80.905Z" fill="#231F20"/>
</svg>
