<svg width="100" height="101" viewBox="0 0 100 101" fill="none" xmlns="http://www.w3.org/2000/svg">
<path d="M23.4169 8.33887C23.4169 8.33887 -12.2563 33.725 4.45722 69.7178C21.1707 105.711 89.9978 101.53 97.8359 66.5046C105.682 31.4788 82.9786 19.5852 57.8577 23.4457C32.729 27.2985 23.4169 8.33887 23.4169 8.33887Z" fill="#6DC3CC"/>
<path d="M73.534 26.9163C73.4638 26.9163 73.3936 26.9085 73.3234 26.9007L42.7197 21.2775C42.4858 21.2307 42.2674 21.1215 42.1036 20.95C41.6746 20.521 40.497 18.813 43.3515 14.8199C45.2934 12.098 48.491 11.6378 50.823 11.2947C51.8603 11.1465 52.8352 11.0061 53.3733 10.7175C53.9582 10.4056 53.6307 9.01733 53.2095 7.4965C52.9755 6.6386 52.7494 5.82749 52.7494 5.13337C52.7494 3.82312 53.4747 2.39588 54.6446 1.3976C56.0172 0.23553 57.8656 -0.224617 59.8544 0.102945C61.3908 0.360316 62.5684 1.14803 63.2548 2.38808C64.2764 4.21308 64.1751 7.03635 62.9896 9.94542C62.5607 10.9983 62.584 11.3493 62.6308 11.4662C62.8258 11.9108 64.4013 12.5269 66.2185 13.2444C66.9828 13.5408 67.8563 13.884 68.8389 14.2895C74.5557 16.6449 75.1562 22.9309 74.6727 25.9258C74.6259 26.2378 74.4465 26.5107 74.1891 26.6979C74.0097 26.8461 73.7758 26.9163 73.534 26.9163ZM43.8584 19.1094L72.4733 24.366C72.5123 22.2992 72.0522 18.1423 67.9733 16.4655C66.9984 16.0677 66.1405 15.7246 65.3918 15.436C62.5217 14.3129 61.0788 13.7514 60.5017 12.4021C60.0415 11.3337 60.3925 10.1716 60.8449 9.07192C61.734 6.88817 61.8899 4.71222 61.2348 3.54235C60.8917 2.92622 60.3223 2.56746 59.4878 2.42708C57.8266 2.14631 56.7659 2.69225 56.1732 3.19919C55.4401 3.82312 55.1047 4.64203 55.1047 5.14897C55.1047 5.53112 55.2997 6.21745 55.4791 6.88817C55.9938 8.75995 56.7815 11.5832 54.4808 12.7999C53.5839 13.2756 52.414 13.4472 51.1739 13.6266C49.0448 13.9386 46.6349 14.2817 45.27 16.1925C44.1391 17.7445 43.8974 18.6648 43.8584 19.1094Z" fill="#231F20"/>
<path d="M70.812 84.6997C70.7496 84.6997 70.6794 84.6919 70.6092 84.6841L24.1109 76.6354C23.8067 76.5808 23.5338 76.4092 23.3544 76.1518C23.175 75.8945 23.1048 75.5825 23.1594 75.2783L33.93 15.2798C34.0392 14.6559 34.6319 14.2269 35.2559 14.3283L43.6789 15.5762C44.3184 15.6698 44.763 16.2625 44.6616 16.902C44.568 17.5416 43.9675 17.9861 43.3357 17.8847L36.028 16.8006L25.663 74.5218L69.8527 82.1649L80.1553 24.2956L73.6976 22.9619C73.0659 22.8293 72.6604 22.2132 72.793 21.5815C72.9256 20.9498 73.5417 20.5442 74.1734 20.6768L81.7385 22.2444C82.3547 22.377 82.7602 22.9697 82.651 23.5937L71.9507 83.7248C71.8649 84.2941 71.3657 84.6997 70.812 84.6997Z" fill="#231F20"/>
<path d="M76.2012 95.9457C76.1388 95.9457 76.0686 95.938 75.9984 95.9302L15.6645 85.5027C15.0328 85.3936 14.6038 84.793 14.713 84.1613L27.8 5.21094C27.8233 5.07835 27.8623 4.95357 27.9247 4.84438C28.3693 4.03327 29.7497 2.72302 32.1596 3.01939C34.4136 3.29236 53.5604 6.63817 54.3793 6.77856C55.0188 6.88775 55.44 7.49608 55.3308 8.1356C55.2216 8.77513 54.6055 9.20408 53.9738 9.08709C53.7788 9.0559 34.0704 5.60869 31.8789 5.34352C30.8026 5.21094 30.2644 5.63989 30.0617 5.86606L17.2088 83.4048L75.2575 93.4422C80.2021 66.5275 89.2491 17.1982 89.4285 15.8957C89.3115 15.5993 88.1494 14.952 87.0576 14.6245L62.3812 10.5221C61.7416 10.4129 61.3127 9.81241 61.4219 9.17288C61.5311 8.53336 62.1316 8.11221 62.7711 8.21359L87.5177 12.3237C87.5645 12.3315 87.6035 12.3393 87.6503 12.3549C88.3912 12.5655 92.0802 13.7588 91.7604 16.1999C91.5577 17.7831 77.9482 91.8512 77.3633 95.0021C77.2463 95.548 76.755 95.9457 76.2012 95.9457Z" fill="#231F20"/>
<path d="M70.0243 101C68.7686 101 67.8015 100.82 67.5519 100.773C65.7581 100.547 16.7407 94.5029 13.5587 94.1675C11.8663 93.9881 10.6886 93.4578 10.0491 92.5843C9.59676 91.9682 9.51875 91.2975 9.58894 90.8451L19.8136 10.7639C19.8916 10.1789 20.3829 9.74219 20.9757 9.74219H27.5893C28.2366 9.74219 28.7592 10.2647 28.7592 10.9121C28.7592 11.5594 28.2366 12.0819 27.5893 12.0819H22.0052L11.9053 91.1571C11.9443 91.2741 12.3576 91.6874 13.7927 91.8356C17.0371 92.171 65.8049 98.1919 67.8795 98.4492C67.9185 98.4492 67.9497 98.457 67.9887 98.4648C68.0043 98.4648 69.5251 98.7846 71.2253 98.5818L72.403 94.0193C72.5668 93.3954 73.2063 93.0211 73.8302 93.177C74.4541 93.3408 74.8285 93.9803 74.6725 94.6043L73.2999 99.8999C73.1907 100.329 72.8475 100.656 72.4108 100.75C71.5763 100.937 70.7496 101 70.0243 101ZM11.8897 91.2507V91.2585C11.8897 91.2585 11.8897 91.2585 11.8897 91.2507Z" fill="#231F20"/>
<path d="M66.3119 68.4703C66.2339 68.4703 66.1637 68.4625 66.0857 68.4469L40.8634 63.5412C40.2317 63.4165 39.8183 62.8003 39.9353 62.1686C40.0601 61.5369 40.6762 61.1235 41.308 61.2405L66.5303 66.1461C67.162 66.2709 67.5753 66.8871 67.4584 67.5188C67.3492 68.0803 66.8578 68.4703 66.3119 68.4703Z" fill="#231F20"/>
<path d="M67.9965 59.3218C67.9185 59.3218 67.8483 59.314 67.7703 59.2984L42.548 54.3928C41.9163 54.268 41.5029 53.6519 41.6199 53.0202C41.7447 52.3884 42.3608 51.9751 42.9925 52.0921L68.2149 56.9977C68.8466 57.1225 69.26 57.7386 69.143 58.3703C69.0338 58.9397 68.5424 59.3218 67.9965 59.3218Z" fill="#231F20"/>
<path d="M69.8996 48.7222C69.8216 48.7222 69.7514 48.7144 69.6734 48.6988L44.4511 43.7932C43.8193 43.6684 43.406 43.0523 43.523 42.4205C43.6478 41.7888 44.2717 41.3755 44.8956 41.4925L70.118 46.3981C70.7497 46.5229 71.163 47.139 71.046 47.7707C70.9369 48.3401 70.4455 48.7222 69.8996 48.7222Z" fill="#231F20"/>
<path d="M72.0678 39.5113C71.9898 39.5113 71.9196 39.5035 71.8416 39.4879L46.6193 34.5823C45.9875 34.4575 45.5742 33.8413 45.6912 33.2096C45.816 32.5779 46.4321 32.1645 47.0638 32.2815L72.2861 37.1872C72.9178 37.3119 73.3312 37.9281 73.2142 38.5598C73.105 39.1213 72.6137 39.5113 72.0678 39.5113Z" fill="#231F20"/>
<path d="M36.0436 63.081C35.6692 63.081 35.3182 62.9017 35.0921 62.5975L33.3217 60.1408C32.9395 59.6182 33.0643 58.8851 33.5868 58.5108C34.1094 58.1286 34.8425 58.2534 35.2169 58.7759L36.0046 59.8678L38.0713 56.7716C38.4301 56.2334 39.1554 56.0852 39.6936 56.444C40.2317 56.8028 40.3799 57.5281 40.0211 58.0662L37.0185 62.5663C36.8079 62.8861 36.4491 63.081 36.067 63.0888C36.0514 63.081 36.0514 63.081 36.0436 63.081Z" fill="#231F20"/>
<path d="M37.307 54.0263C36.9326 54.0263 36.5816 53.847 36.3555 53.5428L34.5851 51.0861C34.2029 50.5635 34.3277 49.8304 34.8502 49.4561C35.3728 49.0739 36.1059 49.1909 36.4803 49.7212L37.268 50.8131L39.3347 47.7169C39.6935 47.1787 40.4188 47.0305 40.957 47.3893C41.4951 47.7481 41.6433 48.4734 41.2845 49.0115L38.2819 53.5116C38.0713 53.8314 37.7125 54.0263 37.3304 54.0341C37.3226 54.0263 37.3148 54.0263 37.307 54.0263Z" fill="#231F20"/>
<path d="M39.3973 43.3877C39.023 43.3877 38.672 43.2083 38.4458 42.9041L36.6754 40.4474C36.2933 39.9249 36.418 39.1917 36.9406 38.8174C37.4631 38.4352 38.1963 38.56 38.5706 39.0826L39.3583 40.1666L41.4251 37.0704C41.7838 36.5322 42.5092 36.3841 43.0473 36.7428C43.5854 37.1016 43.7336 37.8269 43.3748 38.365L40.3722 42.8651C40.1616 43.1849 39.8028 43.3799 39.4207 43.3877C39.4129 43.3877 39.4051 43.3877 39.3973 43.3877Z" fill="#231F20"/>
<path d="M41.0897 34.0293C40.7153 34.0293 40.3644 33.8499 40.1382 33.5457L38.3678 31.089C37.9856 30.5665 38.1105 29.8334 38.633 29.459C39.1555 29.0768 39.8886 29.2016 40.263 29.7242L41.0507 30.816L43.1175 27.7198C43.4762 27.1817 44.2015 27.0335 44.7397 27.3922C45.2778 27.751 45.426 28.4763 45.0673 29.0145L42.0646 33.5145C41.854 33.8343 41.4953 34.0293 41.1131 34.0371C41.1053 34.0293 41.0975 34.0293 41.0897 34.0293Z" fill="#231F20"/>
<path d="M67.739 100.4C67.5752 100.4 67.4115 100.345 67.2711 100.244C66.9279 99.9862 66.8577 99.4949 67.1151 99.1517L71.0693 93.9029C71.3266 93.5598 71.818 93.4896 72.1612 93.7469C72.5043 94.0043 72.5745 94.4957 72.3171 94.8388L68.363 100.088C68.2148 100.29 67.9808 100.4 67.739 100.4Z" fill="#231F20"/>
<path d="M63.8396 99.6584C63.6758 99.6584 63.5121 99.6038 63.3717 99.5024C63.0285 99.245 62.9583 98.7537 63.2157 98.4105L67.1698 93.1617C67.4272 92.8186 67.9186 92.7484 68.2617 93.0057C68.6049 93.2631 68.6751 93.7545 68.4177 94.0976L64.4636 99.3464C64.3076 99.5492 64.0736 99.6584 63.8396 99.6584Z" fill="#231F20"/>
<path d="M59.324 99.354C59.1524 99.354 58.9808 99.2994 58.8326 99.1824C58.4973 98.9095 58.4427 98.4181 58.7157 98.0828L63.4965 92.1866C63.7694 91.8513 64.2608 91.7967 64.5962 92.0697C64.9315 92.3426 64.9861 92.834 64.7131 93.1693L59.9323 99.0655C59.7763 99.2604 59.5501 99.354 59.324 99.354Z" fill="#231F20"/>
<path d="M55.3776 98.8712C55.1982 98.8712 55.0266 98.8088 54.8784 98.6919C54.5509 98.4189 54.5041 97.9275 54.777 97.5922L59.8231 91.5479C60.0961 91.2203 60.5952 91.1735 60.9227 91.4465C61.2503 91.7194 61.2971 92.2108 61.0241 92.5462L55.9781 98.5905C55.8222 98.7776 55.6038 98.8712 55.3776 98.8712Z" fill="#231F20"/>
<path d="M51.5091 98.3949C51.3219 98.3949 51.1348 98.3325 50.9866 98.1922C50.6668 97.9036 50.6434 97.4122 50.932 97.0925L56.4849 90.9468C56.7735 90.627 57.2649 90.6036 57.5846 90.8922C57.9044 91.1808 57.9278 91.6721 57.6392 91.9919L52.0863 98.1376C51.9381 98.3091 51.7197 98.3949 51.5091 98.3949Z" fill="#231F20"/>
<path d="M47.017 97.7714C46.8142 97.7714 46.6192 97.6934 46.4632 97.5452C46.1591 97.241 46.1591 96.7497 46.4632 96.4455L52.3594 90.5494C52.6635 90.2452 53.1548 90.2452 53.459 90.5494C53.7632 90.8536 53.7632 91.3449 53.459 91.6491L47.5629 97.5452C47.4147 97.6934 47.2198 97.7714 47.017 97.7714Z" fill="#231F20"/>
<path d="M42.1426 97.0302C41.9632 97.0302 41.7838 96.9678 41.6356 96.843C41.3081 96.5622 41.2769 96.0709 41.5577 95.7433L47.095 89.3402C47.3758 89.0127 47.8671 88.9815 48.1947 89.2623C48.5222 89.543 48.5535 90.0344 48.2727 90.3619L42.7353 96.765C42.5793 96.9366 42.361 97.0302 42.1426 97.0302Z" fill="#231F20"/>
<path d="M37.1978 96.4147C37.0184 96.4147 36.8468 96.3524 36.6986 96.2354C36.371 95.9624 36.3242 95.4633 36.605 95.1357L42.1736 88.4987C42.4466 88.1711 42.9379 88.1243 43.2732 88.4051C43.6008 88.678 43.6476 89.1772 43.3668 89.5047L37.7983 96.1418C37.6423 96.3212 37.4239 96.4147 37.1978 96.4147Z" fill="#231F20"/>
<path d="M32.6976 95.8523C32.526 95.8523 32.3467 95.7899 32.1985 95.6729C31.8709 95.4 31.8241 94.9086 32.0971 94.5732L37.767 87.7412C38.04 87.4137 38.5314 87.3669 38.8667 87.6398C39.1943 87.9128 39.2411 88.4041 38.9681 88.7395L33.2982 95.5715C33.1422 95.7509 32.9238 95.8523 32.6976 95.8523Z" fill="#231F20"/>
<path d="M27.3788 95.3227C27.2072 95.3227 27.0278 95.2603 26.8797 95.1433C26.5521 94.8704 26.5053 94.379 26.7783 94.0437L32.7446 86.8685C33.0175 86.5409 33.5089 86.4863 33.8443 86.7671C34.1718 87.0401 34.2186 87.5314 33.9456 87.8668L27.9793 95.0419C27.8233 95.2291 27.6049 95.3227 27.3788 95.3227Z" fill="#231F20"/>
<path d="M23.4246 94.464C23.2374 94.464 23.058 94.4016 22.9098 94.2691C22.5901 93.9805 22.5589 93.4891 22.8474 93.1694L29.0244 86.2048C29.3129 85.8772 29.8043 85.8538 30.124 86.1424C30.4438 86.4309 30.475 86.9223 30.1864 87.2421L24.0095 94.2067C23.8536 94.3782 23.643 94.464 23.4246 94.464Z" fill="#231F20"/>
<path d="M19.0337 94.4173C18.8465 94.4173 18.6671 94.3549 18.5111 94.2223C18.1914 93.9338 18.1602 93.4424 18.4488 93.1227L25.195 85.5419C25.4835 85.2222 25.9749 85.191 26.2947 85.4795C26.6144 85.7681 26.6456 86.2594 26.357 86.5792L19.6108 94.1599C19.4627 94.3315 19.2521 94.4173 19.0337 94.4173Z" fill="#231F20"/>
<path d="M14.3621 93.8252C14.1749 93.8252 13.9955 93.7628 13.8395 93.6302C13.5198 93.3416 13.4886 92.8503 13.7771 92.5305L20.7027 84.7626C20.9913 84.4429 21.4827 84.4117 21.8024 84.7002C22.1222 84.9888 22.1534 85.4801 21.8648 85.7999L14.9392 93.5678C14.7833 93.7394 14.5726 93.8252 14.3621 93.8252Z" fill="#231F20"/>
<path d="M10.8992 90.6275C10.7121 90.6275 10.5249 90.5651 10.3767 90.4247C10.057 90.1361 10.0336 89.6448 10.3221 89.325L15.2824 83.8189C15.571 83.4991 16.0623 83.4757 16.382 83.7643C16.7018 84.0528 16.7252 84.5442 16.4366 84.8639L11.4764 90.3701C11.3204 90.5417 11.1098 90.6275 10.8992 90.6275Z" fill="#231F20"/>
<path d="M11.5465 85.5346C11.3359 85.5346 11.1175 85.4488 10.9693 85.2772C10.6808 84.9574 10.7042 84.4661 11.0239 84.1775L15.3368 80.2936C15.6566 80.005 16.148 80.0284 16.4365 80.3482C16.7251 80.6679 16.7017 81.1593 16.3819 81.4478L12.069 85.3318C11.9208 85.4644 11.7336 85.5346 11.5465 85.5346Z" fill="#231F20"/>
<path d="M12.303 79.5988C12.0691 79.5988 11.8351 79.4896 11.6791 79.2868C11.4217 78.9437 11.4919 78.4523 11.8351 78.195L16.5458 74.6542C16.8889 74.3968 17.3802 74.467 17.6376 74.8102C17.895 75.1533 17.8248 75.6447 17.4816 75.902L12.771 79.4428C12.6306 79.552 12.4668 79.5988 12.303 79.5988Z" fill="#231F20"/>
<path d="M13.3794 73.3988C13.1454 73.3988 12.9114 73.2974 12.7632 73.0946C12.498 72.7514 12.5682 72.2601 12.9036 72.0027L17.3491 68.5945C17.6922 68.3293 18.1836 68.3995 18.441 68.7349C18.7061 69.078 18.636 69.5694 18.3006 69.8268L13.8551 73.235C13.7069 73.3442 13.5431 73.3988 13.3794 73.3988Z" fill="#231F20"/>
<path d="M13.777 68.0803C13.5431 68.0803 13.3091 67.9711 13.1531 67.7762C12.8957 67.433 12.9581 66.9417 13.3013 66.6843L18.5891 62.66C18.9323 62.4026 19.4236 62.465 19.681 62.8081C19.9383 63.1513 19.8759 63.6426 19.5328 63.9L14.245 67.9244C14.1046 68.0257 13.9408 68.0803 13.777 68.0803Z" fill="#231F20"/>
<path d="M14.3385 63.6659C14.1046 63.6659 13.8706 63.5645 13.7224 63.3617C13.4573 63.0185 13.5274 62.5272 13.8628 62.2698L19.6809 57.7931C20.0241 57.528 20.5076 57.5904 20.7728 57.9335C21.038 58.2767 20.9678 58.768 20.6324 59.0254L14.8143 63.5021C14.6739 63.6113 14.5023 63.6659 14.3385 63.6659Z" fill="#231F20"/>
<path d="M15.1576 57.2235C14.9236 57.2235 14.6975 57.1221 14.5415 56.9272C14.2763 56.5918 14.3309 56.1005 14.6741 55.8275L20.3518 51.343C20.695 51.0778 21.1785 51.1324 21.4515 51.4756C21.7167 51.8109 21.6621 52.3023 21.3189 52.5753L15.6411 57.0597C15.5008 57.1689 15.3292 57.2235 15.1576 57.2235Z" fill="#231F20"/>
<path d="M15.9062 51.3822C15.6644 51.3822 15.4227 51.2652 15.2667 51.0468C15.0171 50.6958 15.1029 50.2045 15.4538 49.9627L21.7321 45.5562C22.0831 45.3067 22.5744 45.3924 22.8162 45.7434C23.058 46.0944 22.98 46.5857 22.629 46.8275L16.3508 51.234C16.2182 51.3354 16.0622 51.3822 15.9062 51.3822Z" fill="#231F20"/>
<path d="M16.421 46.8744C16.2026 46.8744 15.9842 46.7808 15.8282 46.6015C15.5474 46.2739 15.5865 45.7826 15.9062 45.5018L22.3015 39.98C22.6291 39.6993 23.1204 39.7305 23.4012 40.058C23.6819 40.3856 23.643 40.8769 23.3232 41.1577L16.9279 46.6795C16.7797 46.812 16.6003 46.8744 16.421 46.8744Z" fill="#231F20"/>
<path d="M17.2477 40.8611C17.0059 40.8611 16.772 40.7519 16.616 40.5413C16.3586 40.1982 16.4366 39.7068 16.7798 39.4494L23.5572 34.4502C23.9004 34.1928 24.3917 34.2708 24.6491 34.614C24.9064 34.9572 24.8285 35.4485 24.4853 35.7059L17.7079 40.7051C17.5753 40.8143 17.4115 40.8611 17.2477 40.8611Z" fill="#231F20"/>
<path d="M17.8872 35.8381C17.6688 35.8381 17.4504 35.7445 17.2945 35.5651C17.0137 35.2376 17.0449 34.7462 17.3725 34.4655L24.5399 28.2652C24.8674 27.9844 25.3588 28.0156 25.6395 28.3432C25.9203 28.6707 25.8891 29.1621 25.5616 29.4428L18.3942 35.6431C18.2538 35.7757 18.0744 35.8381 17.8872 35.8381Z" fill="#231F20"/>
<path d="M18.4566 31.3933C18.2382 31.3933 18.0199 31.2997 17.8639 31.1203C17.5831 30.7928 17.6221 30.3014 17.9497 30.0207L25.2964 23.7814C25.624 23.5006 26.1154 23.5396 26.3961 23.8672C26.6769 24.1947 26.6379 24.6861 26.3103 24.9668L18.9636 31.2061C18.8154 31.3309 18.636 31.3933 18.4566 31.3933Z" fill="#231F20"/>
<path d="M19.0414 26.7918C18.8464 26.7918 18.6515 26.7216 18.4955 26.5656C18.1835 26.2615 18.1835 25.7701 18.4799 25.466L25.4523 18.3454C25.7564 18.0412 26.2478 18.0334 26.5519 18.3298C26.8639 18.634 26.8639 19.1253 26.5675 19.4295L19.5951 26.55C19.447 26.7138 19.2442 26.7918 19.0414 26.7918Z" fill="#231F20"/>
<path d="M19.5797 22.6184C19.3769 22.6184 19.182 22.5404 19.026 22.3922C18.7218 22.0881 18.7218 21.5967 19.026 21.2926L26.9888 13.3219C27.293 13.0177 27.7844 13.0177 28.0885 13.3219C28.3927 13.626 28.3927 14.1174 28.0885 14.4215L20.1256 22.3922C19.9774 22.5404 19.7747 22.6184 19.5797 22.6184Z" fill="#231F20"/>
<path d="M20.1724 17.971C19.954 17.971 19.7278 17.8774 19.5796 17.6981C19.2989 17.3705 19.3456 16.8792 19.6732 16.5984L27.0902 10.3279C27.4177 10.0471 27.9091 10.0939 28.1899 10.4215C28.4706 10.7491 28.4238 11.2404 28.0963 11.5212L20.6793 17.7917C20.5311 17.9086 20.3517 17.971 20.1724 17.971Z" fill="#231F20"/>
</svg>
