<svg width="103" height="94" viewBox="0 0 103 94" fill="none" xmlns="http://www.w3.org/2000/svg">
<path d="M24.1111 0C24.1111 0 -12.6196 26.1387 4.58936 63.1986C21.7983 100.259 92.6659 95.9543 100.736 59.8901C108.807 23.826 85.4466 11.5797 59.581 15.5547C33.7153 19.5297 24.1111 0 24.1111 0Z" fill="#C7D166"/>
<path d="M44.7893 88.0442C44.5805 88.0442 44.4038 88.0442 44.2432 88.0362C38.2044 87.9157 37.1364 79.9256 37.0882 79.5803L26.7612 18.1243C26.7451 18.0279 26.5765 17.1205 26.3517 15.8356C26.0465 14.077 25.6209 11.5314 25.3318 9.36319C24.8098 5.49258 29.082 3.70182 31.6918 3.25212C31.74 3.24409 31.7882 3.23606 31.8444 3.23606C32.1576 3.21197 62.7049 1.80666 67.2982 1.50954C72.9837 1.17227 74.381 8.36743 74.4372 8.67258C74.5496 9.33107 85.3022 72.7224 86.298 78.7371C86.6754 80.9856 86.298 82.8326 85.1818 84.2298C83.4874 86.3418 80.733 86.5185 80.6205 86.5185C79.3839 86.5827 51.1573 88.0442 44.7893 88.0442ZM32.0452 5.62909C31.4911 5.74152 27.4036 6.68106 27.7248 9.03395C28.0139 11.162 28.4315 13.6835 28.7286 15.4181C28.9615 16.7671 29.1302 17.6906 29.1302 17.6906C29.1302 17.6987 29.1302 17.7067 29.1302 17.7067L39.4652 79.235C39.4812 79.3474 40.3244 85.5548 44.2834 85.6271C49.2461 85.7235 80.1708 84.1254 80.484 84.1094C80.4921 84.1094 82.2989 83.9729 83.3107 82.7041C83.9772 81.8689 84.178 80.6644 83.921 79.1226C82.9172 73.1078 72.1726 9.72455 72.0602 9.09016C72.0602 9.05804 71.0163 3.69379 67.4589 3.91061C62.9619 4.20773 33.8841 5.54879 32.0452 5.62909Z" fill="#231F20"/>
<path d="M28.3513 16.5828C27.7169 16.5828 27.1869 16.0849 27.1467 15.4425C27.1146 14.776 27.6205 14.2138 28.287 14.1737L73.8671 11.6763C74.5336 11.6441 75.0957 12.15 75.1359 12.8166C75.168 13.4831 74.6621 14.0452 73.9956 14.0853L28.4155 16.5828C28.3994 16.5828 28.3754 16.5828 28.3513 16.5828Z" fill="#231F20"/>
<path d="M38.1401 76.2634C37.5057 76.2634 36.9757 75.7656 36.9355 75.1231C36.9034 74.4566 37.4093 73.8945 38.0758 73.8543L83.6559 71.3569C84.3224 71.3248 84.8846 71.8307 84.9247 72.4972C84.9568 73.1637 84.4509 73.7259 83.7844 73.766L38.2043 76.2634C38.1883 76.2634 38.1642 76.2634 38.1401 76.2634Z" fill="#231F20"/>
<path d="M38.1402 93.7702C38.0197 93.7702 37.9153 93.7702 37.819 93.7702C33.5227 93.722 31.9167 89.0965 31.6677 86.6553L29.2426 71.9839L24.2799 41.4687C24.1273 40.6255 20.3771 20.1563 19.8712 17.0405C19.3412 13.7641 20.2326 12.4632 20.6421 12.0537L25.5968 6.42443C26.0385 5.92655 26.8014 5.87836 27.2993 6.32003C27.7971 6.7617 27.8453 7.52458 27.4036 8.02246L22.4168 13.6838C22.4008 13.6999 22.3927 13.716 22.3767 13.724C22.3124 13.8203 21.9109 14.5672 22.2482 16.655C22.7461 19.7467 26.6167 40.8424 26.6568 41.0592L31.6276 71.5904L34.0608 86.3341C34.0768 86.4546 34.6309 91.3209 37.8511 91.3531C42.1553 91.4012 71.4499 90.2529 71.7471 90.2368C71.8193 90.2288 71.8916 90.2368 71.9639 90.2449C72.9918 90.3894 75.9309 90.5018 77.1996 89.2973C79.1109 87.4905 82.6121 83.403 82.6522 83.3549C83.0859 82.8489 83.8487 82.7927 84.3547 83.2264C84.8606 83.66 84.9168 84.4229 84.4831 84.9288C84.3386 85.0974 80.8615 89.1527 78.8619 91.0479C76.6536 93.1438 72.5983 92.7584 71.739 92.6459C69.5548 92.7423 43.3037 93.7702 38.1402 93.7702Z" fill="#231F20"/>
<path d="M42.6854 75.6694C42.1876 75.6694 41.7218 75.3642 41.5532 74.8664C41.4648 74.6174 40.7582 72.2967 42.0912 67.6551C43.5848 62.4515 48.0738 58.3641 49.4148 57.2318C51.5108 55.4651 55.7186 54.8628 58.8826 54.6701C61.5406 54.5015 67.2823 56.2922 69.8199 59.3598C71.9158 61.8894 73.4255 63.7203 74.4694 65.76C75.682 68.1209 76.5412 71.6141 76.7019 72.2886C76.8544 72.9391 76.4529 73.5815 75.8025 73.7341C75.152 73.8867 74.5015 73.4851 74.357 72.8347C73.9475 71.1001 73.1685 68.4903 72.3334 66.8521C71.45 65.1256 70.1652 63.5436 67.9649 60.8856C66.0697 58.5889 61.2194 56.9427 59.0352 57.0632C55.1886 57.296 52.1773 58.0429 50.9727 59.0627C50.1135 59.7854 45.753 63.64 44.412 68.3056C43.2957 72.2003 43.8418 74.0714 43.8418 74.0874C44.0345 74.7138 43.6892 75.3883 43.0629 75.5971C42.9344 75.6453 42.8139 75.6694 42.6854 75.6694Z" fill="#231F20"/>
<path d="M55.028 57.0631C47.4554 57.0631 41.2961 50.952 41.2961 43.4436C41.2961 35.9353 47.4554 29.8242 55.028 29.8242C62.6006 29.8242 68.7598 35.9353 68.7598 43.4436C68.7598 50.952 62.6006 57.0631 55.028 57.0631ZM55.028 32.2333C48.7804 32.2333 43.7052 37.2603 43.7052 43.4436C43.7052 49.627 48.7884 54.654 55.028 54.654C61.2756 54.654 66.3507 49.627 66.3507 43.4436C66.3507 37.2603 61.2756 32.2333 55.028 32.2333Z" fill="#231F20"/>
<path d="M79.1029 70.546C78.7174 70.546 78.3802 70.273 78.3159 69.8795L69.057 16.8313C68.9847 16.3976 69.2738 15.98 69.7074 15.8997C70.1491 15.8275 70.5586 16.1166 70.6389 16.5502L79.8979 69.5985C79.9702 70.0321 79.6811 70.4497 79.2474 70.53C79.1912 70.538 79.143 70.546 79.1029 70.546Z" fill="#231F20"/>
<path d="M62.9537 83.3144C60.7615 83.3144 58.9707 81.7404 58.9707 79.8051C58.9707 77.8698 60.7534 76.2959 62.9537 76.2959C65.146 76.2959 66.9287 77.8698 66.9287 79.8051C66.9287 81.7404 65.146 83.3144 62.9537 83.3144ZM62.9537 77.91C61.6448 77.91 60.5768 78.7612 60.5768 79.8132C60.5768 80.8571 61.6448 81.7164 62.9537 81.7164C64.2627 81.7164 65.3227 80.8651 65.3227 79.8132C65.3227 78.7612 64.2627 77.91 62.9537 77.91Z" fill="#231F20"/>
<path d="M73.9635 92.3329C73.835 92.3329 73.6985 92.3007 73.578 92.2365C73.1925 92.0197 73.048 91.5378 73.2568 91.1444L76.5653 85.0975C76.7741 84.7121 77.2639 84.5675 77.6574 84.7763C78.0429 84.9931 78.1874 85.475 77.9786 85.8684L74.6701 91.9153C74.5256 92.1803 74.2445 92.3329 73.9635 92.3329Z" fill="#231F20"/>
<path d="M70.5184 92.3004C70.3818 92.3004 70.2373 92.2682 70.1088 92.1879C69.7234 91.9631 69.6029 91.4732 69.8197 91.0878L73.2567 85.2417C73.4815 84.8643 73.9714 84.7278 74.3568 84.9526C74.7423 85.1775 74.8628 85.6673 74.6459 86.0528L71.209 91.8988C71.0644 92.1558 70.7994 92.3004 70.5184 92.3004Z" fill="#231F20"/>
<path d="M66.9369 92.4365C66.7924 92.4365 66.6398 92.3963 66.5113 92.316C66.1339 92.0831 66.0215 91.5853 66.2544 91.2078L69.9082 85.3859C70.141 85.0084 70.6389 84.896 71.0163 85.1289C71.3938 85.3618 71.5062 85.8596 71.2733 86.2371L67.6195 92.059C67.4669 92.308 67.2019 92.4365 66.9369 92.4365Z" fill="#231F20"/>
<path d="M62.0704 92.6218C61.9178 92.6218 61.7733 92.5817 61.6368 92.4934C61.2674 92.2525 61.1549 91.7546 61.3959 91.3852L65.1219 85.6114C65.3628 85.242 65.8607 85.1296 66.2301 85.3705C66.5995 85.6114 66.7119 86.1093 66.471 86.4787L62.745 92.2524C62.5924 92.4934 62.3354 92.6218 62.0704 92.6218Z" fill="#231F20"/>
<path d="M59.0189 92.7337C58.8824 92.7337 58.7539 92.7016 58.6255 92.6293C58.24 92.4125 58.0955 91.9226 58.3123 91.5372L61.5003 85.8196C61.7171 85.4261 62.207 85.2976 62.5924 85.5064C62.9779 85.7232 63.1224 86.2131 62.9056 86.5985L59.7176 92.3161C59.573 92.5892 59.3 92.7337 59.0189 92.7337Z" fill="#231F20"/>
<path d="M54.5701 92.8944C54.4336 92.8944 54.289 92.8623 54.1606 92.782C53.7831 92.5571 53.6546 92.0592 53.8795 91.6818L57.2522 85.9964C57.4771 85.6109 57.975 85.4904 58.3524 85.7153C58.7378 85.9401 58.8583 86.438 58.6334 86.8154L55.2607 92.5009C55.1162 92.7579 54.8512 92.8944 54.5701 92.8944Z" fill="#231F20"/>
<path d="M50.6595 93.031C50.523 93.031 50.3865 92.9988 50.258 92.9266C49.8726 92.7098 49.736 92.2119 49.9609 91.8344L53.2051 86.1811C53.4219 85.7956 53.9198 85.6591 54.2973 85.884C54.6827 86.1008 54.8192 86.5987 54.5944 86.9761L51.3501 92.6294C51.2056 92.8864 50.9326 93.031 50.6595 93.031Z" fill="#231F20"/>
<path d="M46.869 93.1511C46.7245 93.1511 46.588 93.1109 46.4595 93.0387C46.0821 92.8058 45.9536 92.3159 46.1865 91.9385L49.503 86.4297C49.7359 86.0523 50.2257 85.9238 50.6031 86.1567C50.9806 86.3896 51.109 86.8794 50.8762 87.2568L47.5596 92.7656C47.4071 93.0146 47.1421 93.1511 46.869 93.1511Z" fill="#231F20"/>
<path d="M42.0107 93.2962C41.8661 93.2962 41.7216 93.256 41.5851 93.1757C41.2076 92.9428 41.0952 92.4449 41.3281 92.0675L44.8374 86.4142C45.0702 86.0367 45.5681 85.9243 45.9455 86.1572C46.323 86.3901 46.4354 86.888 46.2025 87.2654L42.6933 92.9187C42.5407 93.1596 42.2757 93.2962 42.0107 93.2962Z" fill="#231F20"/>
<path d="M37.8271 93.3686C37.6826 93.3686 37.53 93.3285 37.4015 93.2401C37.0241 93.0072 36.9117 92.5094 37.1526 92.1319L41.2079 85.7157C41.4408 85.3383 41.9386 85.2259 42.3161 85.4668C42.6935 85.6997 42.8059 86.1975 42.565 86.575L38.5097 92.9912C38.3571 93.2321 38.1001 93.3686 37.8271 93.3686Z" fill="#231F20"/>
<path d="M34.3177 91.3924C34.149 91.3924 33.9724 91.3362 33.8278 91.2238C33.4745 90.9508 33.4102 90.4449 33.6833 90.0996L39.0395 83.1774C39.3125 82.8241 39.8184 82.7679 40.1637 83.0329C40.5171 83.3059 40.5813 83.8118 40.3083 84.1571L34.9521 91.0793C34.7915 91.2881 34.5586 91.3924 34.3177 91.3924Z" fill="#231F20"/>
<path d="M32.8642 87.3376C32.6956 87.3376 32.5269 87.2814 32.3743 87.169C32.021 86.8959 31.9568 86.398 32.2218 86.0447L37.6422 78.9539C37.9153 78.6006 38.4131 78.5364 38.7665 78.8014C39.1198 79.0744 39.1841 79.5723 38.9191 79.9256L33.4986 87.0164C33.346 87.2252 33.1051 87.3376 32.8642 87.3376Z" fill="#231F20"/>
<path d="M31.756 80.616C31.5633 80.616 31.3625 80.5437 31.2099 80.3992C30.8887 80.094 30.8646 79.5881 31.1698 79.2669L36.7589 73.2683C37.064 72.9471 37.5699 72.923 37.8911 73.2281C38.2124 73.5333 38.2365 74.0392 37.9313 74.3604L32.3422 80.359C32.1816 80.5277 31.9728 80.616 31.756 80.616Z" fill="#231F20"/>
<path d="M30.9691 75.8626C30.7764 75.8626 30.5756 75.7904 30.4231 75.6458C30.1018 75.3407 30.0778 74.8348 30.3829 74.5136L35.9559 68.5229C36.2611 68.2017 36.767 68.1857 37.0882 68.4828C37.4094 68.7879 37.4335 69.2939 37.1284 69.6151L31.5553 75.6057C31.4028 75.7743 31.1859 75.8626 30.9691 75.8626Z" fill="#231F20"/>
<path d="M30.2143 71.2695C30.0135 71.2695 29.8127 71.1972 29.6602 71.0447C29.339 70.7395 29.3309 70.2256 29.6361 69.9124L35.2252 64.1065C35.5303 63.7852 36.0443 63.7772 36.3575 64.0824C36.6787 64.3875 36.6867 64.9015 36.3815 65.2146L30.7924 71.0206C30.6399 71.1892 30.4311 71.2695 30.2143 71.2695Z" fill="#231F20"/>
<path d="M29.355 65.9687C29.1623 65.9687 28.9696 65.9045 28.817 65.7599C28.4877 65.4628 28.4556 64.9569 28.7527 64.6277L34.2615 58.5005C34.5587 58.1713 35.0646 58.1472 35.3938 58.4363C35.7231 58.7334 35.7552 59.2393 35.4581 59.5686L29.9493 65.6957C29.7967 65.8804 29.5718 65.9687 29.355 65.9687Z" fill="#231F20"/>
<path d="M28.5439 60.982C28.3351 60.982 28.1263 60.9017 27.9657 60.733C27.6605 60.4118 27.6685 59.9059 27.9898 59.6008L33.2095 54.5658C33.5307 54.2606 34.0366 54.2687 34.3417 54.5899C34.6469 54.9111 34.6389 55.417 34.3177 55.7221L29.0979 60.7571C28.9454 60.9097 28.7446 60.982 28.5439 60.982Z" fill="#231F20"/>
<path d="M27.773 56.2359C27.5803 56.2359 27.3875 56.1717 27.2349 56.0352C26.9057 55.7381 26.8736 55.2322 27.1707 54.9029L32.6233 48.7918C32.9204 48.4626 33.4263 48.4305 33.7556 48.7276C34.0848 49.0247 34.1169 49.5306 33.8198 49.8599L28.3672 55.9709C28.2146 56.1476 27.9898 56.2359 27.773 56.2359Z" fill="#231F20"/>
<path d="M27.0582 51.876C26.8816 51.876 26.7129 51.8198 26.5604 51.7074C26.2151 51.4344 26.1508 50.9285 26.4238 50.5831L31.7479 43.8297C32.021 43.4843 32.5269 43.4201 32.8722 43.6931C33.2175 43.9662 33.2817 44.4721 33.0087 44.8174L27.6846 51.5709C27.532 51.7716 27.2992 51.876 27.0582 51.876Z" fill="#231F20"/>
<path d="M25.9661 45.1542C25.7573 45.1542 25.5485 45.0739 25.3959 44.9133C25.0828 44.6001 25.0908 44.0861 25.404 43.781L30.9128 38.3364C31.226 38.0232 31.7399 38.0232 32.0451 38.3445C32.3582 38.6576 32.3502 39.1716 32.037 39.4767L26.5282 44.9213C26.3756 45.0739 26.1669 45.1542 25.9661 45.1542Z" fill="#231F20"/>
<path d="M25.1551 40.4079C24.9784 40.4079 24.7937 40.3517 24.6492 40.2232C24.3039 39.9422 24.2557 39.4363 24.5368 39.091L29.8769 32.5703C30.158 32.225 30.6639 32.1769 31.0092 32.4579C31.3545 32.739 31.4027 33.2449 31.1216 33.5902L25.7815 40.1108C25.6209 40.3116 25.388 40.4079 25.1551 40.4079Z" fill="#231F20"/>
<path d="M24.1192 34.7066C23.9345 34.7066 23.7498 34.6423 23.5972 34.5138C23.2599 34.2247 23.2198 33.7188 23.5089 33.3815L28.9614 27.0296C29.2505 26.6923 29.7564 26.6521 30.0937 26.9412C30.431 27.2303 30.4711 27.7362 30.1821 28.0735L24.7295 34.4255C24.5689 34.6102 24.344 34.7066 24.1192 34.7066Z" fill="#231F20"/>
<path d="M23.0914 29.054C22.9067 29.054 22.7139 28.9897 22.5614 28.8612C22.2241 28.5721 22.192 28.0662 22.481 27.729L28.0059 21.3609C28.295 21.0236 28.8009 20.9915 29.1382 21.2806C29.4755 21.5697 29.5076 22.0756 29.2185 22.4129L23.6936 28.7809C23.5411 28.9576 23.3162 29.054 23.0914 29.054Z" fill="#231F20"/>
<path d="M22.1117 23.6408C21.911 23.6408 21.7102 23.5686 21.5576 23.416C21.2364 23.1108 21.2284 22.5969 21.5335 22.2837L27.1949 16.3975C27.5001 16.0763 28.014 16.0682 28.3272 16.3734C28.6484 16.6785 28.6564 17.1925 28.3513 17.5057L22.6899 23.3919C22.5293 23.5605 22.3205 23.6408 22.1117 23.6408Z" fill="#231F20"/>
<path d="M21.3246 19.2001C21.1158 19.2001 20.899 19.1198 20.7464 18.9512C20.4413 18.63 20.4493 18.1241 20.7705 17.8189L26.5363 12.3021C26.8575 11.9969 27.3634 12.005 27.6686 12.3262C27.9737 12.6474 27.9657 13.1533 27.6445 13.4585L21.8787 18.9753C21.7181 19.1279 21.5173 19.2001 21.3246 19.2001Z" fill="#231F20"/>
</svg>
