<svg width="254" height="98" viewBox="0 0 254 98" fill="none" xmlns="http://www.w3.org/2000/svg">
<path d="M73.728 19.6V70H5.4V19.6H19.44V58.696H32.616V19.6H46.656V58.696H59.688V19.6H73.728ZM119.278 60.208H97.9656L94.0056 70H79.4616L101.71 19.6H115.75L138.07 70H123.238L119.278 60.208ZM115.102 49.696L108.622 33.568L102.142 49.696H115.102ZM180.709 30.904H157.885V70H143.845V19.6H180.781L180.709 30.904ZM231.007 39.76C235.183 40.624 238.375 42.352 240.583 44.944C242.839 47.488 243.967 50.584 243.967 54.232C243.967 57.208 243.151 59.968 241.519 62.512C239.935 65.056 237.487 67.12 234.175 68.704C230.911 70.24 226.855 71.008 222.007 71.008C218.455 71.008 214.927 70.576 211.423 69.712C207.967 68.848 204.967 67.624 202.423 66.04L207.607 55.312C209.575 56.656 211.783 57.688 214.231 58.408C216.727 59.128 219.175 59.488 221.575 59.488C224.023 59.488 225.967 59.032 227.407 58.12C228.847 57.208 229.567 55.912 229.567 54.232C229.567 50.968 226.999 49.336 221.863 49.336H215.887V40.336L224.887 30.616H205.015V19.6H241.447V28.528L231.007 39.76Z" fill="#FFD966"/>
<path d="M83.792 29.6H85.792V27.6H83.792V29.6ZM83.792 80V82H85.792V80H83.792ZM17.264 80H15.264V82H17.264V80ZM17.264 29.6V27.6H15.264V29.6H17.264ZM28.856 29.6H30.856V27.6H28.856V29.6ZM28.856 70.496H26.856V72.496H28.856V70.496ZM44.768 70.496V72.496H46.768V70.496H44.768ZM44.768 29.6V27.6H42.768V29.6H44.768ZM56.36 29.6H58.36V27.6H56.36V29.6ZM56.36 70.496H54.36V72.496H56.36V70.496ZM72.2 70.496V72.496H74.2V70.496H72.2ZM72.2 29.6V27.6H70.2V29.6H72.2ZM81.792 29.6V80H85.792V29.6H81.792ZM83.792 78H17.264V82H83.792V78ZM19.264 80V29.6H15.264V80H19.264ZM17.264 31.6H28.856V27.6H17.264V31.6ZM26.856 29.6V70.496H30.856V29.6H26.856ZM28.856 72.496H44.768V68.496H28.856V72.496ZM46.768 70.496V29.6H42.768V70.496H46.768ZM44.768 31.6H56.36V27.6H44.768V31.6ZM54.36 29.6V70.496H58.36V29.6H54.36ZM56.36 72.496H72.2V68.496H56.36V72.496ZM74.2 70.496V29.6H70.2V70.496H74.2ZM72.2 31.6H83.792V27.6H72.2V31.6ZM130.423 69.2L132.272 68.436L131.761 67.2H130.423V69.2ZM107.023 69.2V67.2H105.686L105.175 68.436L107.023 69.2ZM102.559 80V82H103.897L104.408 80.764L102.559 80ZM90.6072 80L88.7805 79.1858L87.5262 82H90.6072V80ZM113.071 29.6V27.6H111.773L111.244 28.7858L113.071 29.6ZM124.591 29.6L126.417 28.7836L125.888 27.6H124.591V29.6ZM147.127 80V82H150.212L148.953 79.1836L147.127 80ZM134.887 80L133.039 80.764L133.55 82H134.887V80ZM126.751 60.344V62.344H129.744L128.599 59.5787L126.751 60.344ZM118.759 41.048L120.607 40.2827L118.759 35.8214L116.911 40.2827L118.759 41.048ZM110.767 60.344L108.919 59.5787L107.774 62.344H110.767V60.344ZM130.423 67.2H107.023V71.2H130.423V67.2ZM105.175 68.436L100.711 79.236L104.408 80.764L108.872 69.964L105.175 68.436ZM102.559 78H90.6072V82H102.559V78ZM92.434 80.8142L114.898 30.4142L111.244 28.7858L88.7805 79.1858L92.434 80.8142ZM113.071 31.6H124.591V27.6H113.071V31.6ZM122.765 30.4164L145.301 80.8164L148.953 79.1836L126.417 28.7836L122.765 30.4164ZM147.127 78H134.887V82H147.127V78ZM136.736 79.236L132.272 68.436L128.575 69.964L133.039 80.764L136.736 79.236ZM128.599 59.5787L120.607 40.2827L116.911 41.8133L124.903 61.1093L128.599 59.5787ZM116.911 40.2827L108.919 59.5787L112.615 61.1093L120.607 41.8133L116.911 40.2827ZM110.767 62.344H126.751V58.344H110.767V62.344ZM189.307 39.104V41.104H191.292L191.307 39.1192L189.307 39.104ZM165.331 39.104V37.104H163.327L163.331 39.1075L165.331 39.104ZM165.403 80V82H167.406L167.403 79.9965L165.403 80ZM153.811 80H151.811V82H153.811V80ZM153.811 29.6V27.6H151.811V29.6H153.811ZM189.379 29.6L191.379 29.6151L191.394 27.6H189.379V29.6ZM189.307 37.104H165.331V41.104H189.307V37.104ZM163.331 39.1075L163.403 80.0035L167.403 79.9965L167.331 39.1005L163.331 39.1075ZM165.403 78H153.811V82H165.403V78ZM155.811 80V29.6H151.811V80H155.811ZM153.811 31.6H189.379V27.6H153.811V31.6ZM187.379 29.5848L187.307 39.0888L191.307 39.1192L191.379 29.6151L187.379 29.5848ZM236.969 50.12L235.466 48.8006L233.085 51.5131L236.647 52.0939L236.969 50.12ZM247.121 55.088L245.64 56.432L245.646 56.4389L245.653 56.4457L247.121 55.088ZM248.345 72.728L250.039 73.791L250.044 73.7836L250.049 73.7762L248.345 72.728ZM241.289 78.632L240.439 76.8217L240.428 76.8268L241.289 78.632ZM219.257 79.496L218.715 81.4211L218.731 81.4256L218.747 81.4298L219.257 79.496ZM210.545 75.464L208.762 74.5581L207.986 76.0858L209.377 77.0871L210.545 75.464ZM215.081 66.536L216.281 64.936L214.377 63.5075L213.298 65.6301L215.081 66.536ZM221.705 69.92L221.084 71.821L221.105 71.8281L221.127 71.8347L221.705 69.92ZM236.393 69.416L237.492 71.0874L237.508 71.0766L237.524 71.0655L236.393 69.416ZM224.153 58.4H222.153V60.4H224.153V58.4ZM224.153 50.696L222.654 49.3718L222.153 49.9391V50.696H224.153ZM234.521 38.96L236.02 40.2842L238.957 36.96H234.521V38.96ZM213.065 38.96H211.065V40.96H213.065V38.96ZM213.065 29.6V27.6H211.065V29.6H213.065ZM248.345 29.6H250.345V27.6H248.345V29.6ZM248.345 37.16L249.848 38.4794L250.345 37.9133V37.16H248.345ZM236.647 52.0939C240.743 52.7617 243.668 54.2588 245.64 56.432L248.602 53.744C245.87 50.7332 242.027 48.9183 237.291 48.1461L236.647 52.0939ZM245.653 56.4457C247.629 58.5839 248.649 61.2516 248.649 64.592H252.649C252.649 60.3484 251.317 56.6801 248.59 53.7303L245.653 56.4457ZM248.649 64.592C248.649 67.1495 247.984 69.4987 246.642 71.6798L250.049 73.7762C251.778 70.9653 252.649 67.8905 252.649 64.592H248.649ZM246.651 71.665C245.358 73.7253 243.334 75.4621 240.439 76.8217L242.139 80.4423C245.581 78.8259 248.26 76.6267 250.039 73.791L246.651 71.665ZM240.428 76.8268C237.649 78.1524 234.122 78.864 229.769 78.864V82.864C234.536 82.864 238.69 82.0876 242.15 80.4372L240.428 76.8268ZM229.769 78.864C226.391 78.864 223.058 78.4305 219.768 77.5622L218.747 81.4298C222.368 82.3855 226.044 82.864 229.769 82.864V78.864ZM219.799 77.5709C216.573 76.6621 213.891 75.4085 211.714 73.8409L209.377 77.0871C211.999 78.9755 215.125 80.4099 218.715 81.4211L219.799 77.5709ZM212.328 76.3699L216.864 67.4419L213.298 65.6301L208.762 74.5581L212.328 76.3699ZM213.881 68.136C215.992 69.7191 218.399 70.9434 221.084 71.821L222.327 68.019C220.019 67.2646 218.01 66.2329 216.281 64.936L213.881 68.136ZM221.127 71.8347C223.857 72.6589 226.644 73.072 229.481 73.072V69.072C227.038 69.072 224.641 68.7171 222.283 68.0053L221.127 71.8347ZM229.481 73.072C232.631 73.072 235.368 72.4827 237.492 71.0874L235.295 67.7446C234.058 68.5572 232.188 69.072 229.481 69.072V73.072ZM237.524 71.0655C239.757 69.5346 240.913 67.305 240.913 64.592H236.913C236.913 66.007 236.39 66.9934 235.262 67.7665L237.524 71.0655ZM240.913 64.592C240.913 61.9321 239.85 59.7186 237.653 58.2761C235.602 56.9299 232.78 56.4 229.481 56.4V60.4C232.47 60.4 234.364 60.9021 235.458 61.6199C236.404 62.2414 236.913 63.1239 236.913 64.592H240.913ZM229.481 56.4H224.153V60.4H229.481V56.4ZM226.153 58.4V50.696H222.153V58.4H226.153ZM225.652 52.0202L236.02 40.2842L233.022 37.6358L222.654 49.3718L225.652 52.0202ZM234.521 36.96H213.065V40.96H234.521V36.96ZM215.065 38.96V29.6H211.065V38.96H215.065ZM213.065 31.6H248.345V27.6H213.065V31.6ZM246.345 29.6V37.16H250.345V29.6H246.345ZM246.842 35.8406L235.466 48.8006L238.472 51.4394L249.848 38.4794L246.842 35.8406Z" fill="#676767"/>
</svg>
