<svg width="254" height="97" viewBox="0 0 254 97" fill="none" xmlns="http://www.w3.org/2000/svg">
<path d="M73.728 19.6V70H5.4V19.6H19.44V58.696H32.616V19.6H46.656V58.696H59.688V19.6H73.728ZM119.278 60.208H97.9656L94.0056 70H79.4616L101.71 19.6H115.75L138.07 70H123.238L119.278 60.208ZM115.102 49.696L108.622 33.568L102.142 49.696H115.102ZM180.709 30.904H157.885V70H143.845V19.6H180.781L180.709 30.904ZM244.111 58.696V70H204.871V61.072L223.735 43.432C225.559 41.704 226.783 40.24 227.407 39.04C228.031 37.792 228.343 36.544 228.343 35.296C228.343 33.664 227.791 32.392 226.687 31.48C225.583 30.568 223.975 30.112 221.863 30.112C219.991 30.112 218.263 30.544 216.679 31.408C215.143 32.224 213.871 33.424 212.863 35.008L202.279 29.104C204.247 25.84 207.007 23.272 210.559 21.4C214.111 19.528 218.311 18.592 223.159 18.592C226.999 18.592 230.383 19.216 233.311 20.464C236.287 21.712 238.591 23.512 240.223 25.864C241.903 28.168 242.743 30.856 242.743 33.928C242.743 36.664 242.143 39.256 240.943 41.704C239.791 44.104 237.535 46.84 234.175 49.912L224.671 58.696H244.111Z" fill="#FFD966"/>
<path d="M83.792 28.6H85.792V26.6H83.792V28.6ZM83.792 79V81H85.792V79H83.792ZM17.264 79H15.264V81H17.264V79ZM17.264 28.6V26.6H15.264V28.6H17.264ZM28.856 28.6H30.856V26.6H28.856V28.6ZM28.856 69.496H26.856V71.496H28.856V69.496ZM44.768 69.496V71.496H46.768V69.496H44.768ZM44.768 28.6V26.6H42.768V28.6H44.768ZM56.36 28.6H58.36V26.6H56.36V28.6ZM56.36 69.496H54.36V71.496H56.36V69.496ZM72.2 69.496V71.496H74.2V69.496H72.2ZM72.2 28.6V26.6H70.2V28.6H72.2ZM81.792 28.6V79H85.792V28.6H81.792ZM83.792 77H17.264V81H83.792V77ZM19.264 79V28.6H15.264V79H19.264ZM17.264 30.6H28.856V26.6H17.264V30.6ZM26.856 28.6V69.496H30.856V28.6H26.856ZM28.856 71.496H44.768V67.496H28.856V71.496ZM46.768 69.496V28.6H42.768V69.496H46.768ZM44.768 30.6H56.36V26.6H44.768V30.6ZM54.36 28.6V69.496H58.36V28.6H54.36ZM56.36 71.496H72.2V67.496H56.36V71.496ZM74.2 69.496V28.6H70.2V69.496H74.2ZM72.2 30.6H83.792V26.6H72.2V30.6ZM130.423 68.2L132.272 67.436L131.761 66.2H130.423V68.2ZM107.023 68.2V66.2H105.686L105.175 67.436L107.023 68.2ZM102.559 79V81H103.897L104.408 79.764L102.559 79ZM90.6072 79L88.7805 78.1858L87.5262 81H90.6072V79ZM113.071 28.6V26.6H111.773L111.244 27.7858L113.071 28.6ZM124.591 28.6L126.417 27.7836L125.888 26.6H124.591V28.6ZM147.127 79V81H150.212L148.953 78.1836L147.127 79ZM134.887 79L133.039 79.764L133.55 81H134.887V79ZM126.751 59.344V61.344H129.744L128.599 58.5787L126.751 59.344ZM118.759 40.048L120.607 39.2827L118.759 34.8214L116.911 39.2827L118.759 40.048ZM110.767 59.344L108.919 58.5787L107.774 61.344H110.767V59.344ZM130.423 66.2H107.023V70.2H130.423V66.2ZM105.175 67.436L100.711 78.236L104.408 79.764L108.872 68.964L105.175 67.436ZM102.559 77H90.6072V81H102.559V77ZM92.434 79.8142L114.898 29.4142L111.244 27.7858L88.7805 78.1858L92.434 79.8142ZM113.071 30.6H124.591V26.6H113.071V30.6ZM122.765 29.4164L145.301 79.8164L148.953 78.1836L126.417 27.7836L122.765 29.4164ZM147.127 77H134.887V81H147.127V77ZM136.736 78.236L132.272 67.436L128.575 68.964L133.039 79.764L136.736 78.236ZM128.599 58.5787L120.607 39.2827L116.911 40.8133L124.903 60.1093L128.599 58.5787ZM116.911 39.2827L108.919 58.5787L112.615 60.1093L120.607 40.8133L116.911 39.2827ZM110.767 61.344H126.751V57.344H110.767V61.344ZM189.307 38.104V40.104H191.292L191.307 38.1192L189.307 38.104ZM165.331 38.104V36.104H163.327L163.331 38.1075L165.331 38.104ZM165.403 79V81H167.406L167.403 78.9965L165.403 79ZM153.811 79H151.811V81H153.811V79ZM153.811 28.6V26.6H151.811V28.6H153.811ZM189.379 28.6L191.379 28.6151L191.394 26.6H189.379V28.6ZM189.307 36.104H165.331V40.104H189.307V36.104ZM163.331 38.1075L163.403 79.0035L167.403 78.9965L167.331 38.1005L163.331 38.1075ZM165.403 77H153.811V81H165.403V77ZM155.811 79V28.6H151.811V79H155.811ZM153.811 30.6H189.379V26.6H153.811V30.6ZM187.379 28.5848L187.307 38.0888L191.307 38.1192L191.379 28.6151L187.379 28.5848ZM251.081 69.496H253.081V67.496H251.081V69.496ZM251.081 79V81H253.081V79H251.081ZM212.993 79H210.993V81H212.993V79ZM212.993 71.44L211.62 69.986L210.993 70.5779V71.44H212.993ZM232.433 53.08L233.806 54.534L233.813 54.5275L232.433 53.08ZM236.609 48.04L238.386 48.9588L238.392 48.9467L238.398 48.9344L236.609 48.04ZM235.601 39.184L234.332 40.7295L234.362 40.754L234.392 40.7774L235.601 39.184ZM223.649 38.824L224.484 40.6414L224.504 40.6321L224.524 40.6225L223.649 38.824ZM219.185 42.568L218.102 44.2494L219.705 45.2816L220.813 43.7305L219.185 42.568ZM210.689 37.096L209.029 35.9803L207.892 37.6731L209.606 38.7774L210.689 37.096ZM218.825 30.256L219.679 32.0645L219.689 32.0597L219.7 32.0547L218.825 30.256ZM240.497 29.608L239.679 31.433L239.698 31.4415L239.717 31.4495L240.497 29.608ZM247.049 34.792L245.396 35.9176L245.41 35.9379L245.424 35.9578L247.049 34.792ZM247.697 50.344L249.5 51.2095L247.697 50.344ZM241.001 58.552L239.641 57.0857L239.635 57.0917L239.628 57.0977L241.001 58.552ZM229.409 69.496L228.036 68.0417L224.377 71.496H229.409V69.496ZM249.081 69.496V79H253.081V69.496H249.081ZM251.081 77H212.993V81H251.081V77ZM214.993 79V71.44H210.993V79H214.993ZM214.366 72.894L233.806 54.534L231.06 51.626L211.62 69.986L214.366 72.894ZM233.813 54.5275C235.929 52.5104 237.512 50.6476 238.386 48.9588L234.833 47.1212C234.266 48.2164 233.066 49.7136 231.053 51.6325L233.813 54.5275ZM238.398 48.9344C239.235 47.2602 239.689 45.5397 239.689 43.792H235.689C235.689 44.8283 235.423 45.9398 234.82 47.1456L238.398 48.9344ZM239.689 43.792C239.689 41.2596 238.781 39.0863 236.81 37.5906L234.392 40.7774C235.205 41.3937 235.689 42.2924 235.689 43.792H239.689ZM236.871 37.6385C235.025 36.1222 232.499 35.528 229.625 35.528V39.528C232.032 39.528 233.49 40.0378 234.332 40.7295L236.871 37.6385ZM229.625 35.528C227.15 35.528 224.854 36.014 222.774 37.0255L224.524 40.6225C225.997 39.906 227.684 39.528 229.625 39.528V35.528ZM222.814 37.0066C220.703 37.9764 218.948 39.4585 217.558 41.4055L220.813 43.7305C221.822 42.3175 223.043 41.3036 224.484 40.6414L222.814 37.0066ZM220.268 40.8866L211.772 35.4146L209.606 38.7774L218.102 44.2494L220.268 40.8866ZM212.349 38.2117C214.099 35.6079 216.521 33.5557 219.679 32.0645L217.971 28.4475C214.217 30.2203 211.215 32.7281 209.029 35.9803L212.349 38.2117ZM219.7 32.0547C222.842 30.527 226.495 29.736 230.705 29.736V25.736C225.987 25.736 221.72 26.625 217.951 28.4573L219.7 32.0547ZM230.705 29.736C234.23 29.736 237.204 30.3235 239.679 31.433L241.315 27.783C238.222 26.3965 234.669 25.736 230.705 25.736V29.736ZM239.717 31.4495C242.241 32.5192 244.103 34.0182 245.396 35.9176L248.702 33.6664C246.924 31.0538 244.417 29.0968 241.277 27.7665L239.717 31.4495ZM245.424 35.9578C246.737 37.7879 247.425 39.9849 247.425 42.64H251.425C251.425 39.2471 250.529 36.2121 248.674 33.6262L245.424 35.9578ZM247.425 42.64C247.425 45.085 246.913 47.3563 245.894 49.4785L249.5 51.2095C250.786 48.5317 251.425 45.667 251.425 42.64H247.425ZM245.894 49.4785C244.901 51.5477 242.879 54.0822 239.641 57.0857L242.361 60.0183C245.747 56.8778 248.189 53.9403 249.5 51.2095L245.894 49.4785ZM239.628 57.0977L228.036 68.0417L230.782 70.9503L242.374 60.0063L239.628 57.0977ZM229.409 71.496H251.081V67.496H229.409V71.496Z" fill="#676767"/>
</svg>
