<svg width="239" height="97" viewBox="0 0 239 97" fill="none" xmlns="http://www.w3.org/2000/svg">
<path d="M73.728 19.6V70H5.4V19.6H19.44V58.696H32.616V19.6H46.656V58.696H59.688V19.6H73.728ZM119.278 60.208H97.9656L94.0056 70H79.4616L101.71 19.6H115.75L138.07 70H123.238L119.278 60.208ZM115.102 49.696L108.622 33.568L102.142 49.696H115.102ZM180.709 30.904H157.885V70H143.845V19.6H180.781L180.709 30.904ZM226.759 19.6V70H212.503V30.616H203.143V19.6H226.759Z" fill="#FFD966"/>
<path d="M83.792 28.6H85.792V26.6H83.792V28.6ZM83.792 79V81H85.792V79H83.792ZM17.264 79H15.264V81H17.264V79ZM17.264 28.6V26.6H15.264V28.6H17.264ZM28.856 28.6H30.856V26.6H28.856V28.6ZM28.856 69.496H26.856V71.496H28.856V69.496ZM44.768 69.496V71.496H46.768V69.496H44.768ZM44.768 28.6V26.6H42.768V28.6H44.768ZM56.36 28.6H58.36V26.6H56.36V28.6ZM56.36 69.496H54.36V71.496H56.36V69.496ZM72.2 69.496V71.496H74.2V69.496H72.2ZM72.2 28.6V26.6H70.2V28.6H72.2ZM81.792 28.6V79H85.792V28.6H81.792ZM83.792 77H17.264V81H83.792V77ZM19.264 79V28.6H15.264V79H19.264ZM17.264 30.6H28.856V26.6H17.264V30.6ZM26.856 28.6V69.496H30.856V28.6H26.856ZM28.856 71.496H44.768V67.496H28.856V71.496ZM46.768 69.496V28.6H42.768V69.496H46.768ZM44.768 30.6H56.36V26.6H44.768V30.6ZM54.36 28.6V69.496H58.36V28.6H54.36ZM56.36 71.496H72.2V67.496H56.36V71.496ZM74.2 69.496V28.6H70.2V69.496H74.2ZM72.2 30.6H83.792V26.6H72.2V30.6ZM130.423 68.2L132.272 67.436L131.761 66.2H130.423V68.2ZM107.023 68.2V66.2H105.686L105.175 67.436L107.023 68.2ZM102.559 79V81H103.897L104.408 79.764L102.559 79ZM90.6073 79L88.7805 78.1858L87.5262 81H90.6073V79ZM113.071 28.6V26.6H111.773L111.244 27.7858L113.071 28.6ZM124.591 28.6L126.417 27.7836L125.888 26.6H124.591V28.6ZM147.127 79V81H150.212L148.953 78.1836L147.127 79ZM134.887 79L133.039 79.764L133.55 81H134.887V79ZM126.751 59.344V61.344H129.744L128.599 58.5787L126.751 59.344ZM118.759 40.048L120.607 39.2827L118.759 34.8214L116.911 39.2827L118.759 40.048ZM110.767 59.344L108.919 58.5787L107.774 61.344H110.767V59.344ZM130.423 66.2H107.023V70.2H130.423V66.2ZM105.175 67.436L100.711 78.236L104.408 79.764L108.872 68.964L105.175 67.436ZM102.559 77H90.6073V81H102.559V77ZM92.434 79.8142L114.898 29.4142L111.244 27.7858L88.7805 78.1858L92.434 79.8142ZM113.071 30.6H124.591V26.6H113.071V30.6ZM122.765 29.4164L145.301 79.8164L148.953 78.1836L126.417 27.7836L122.765 29.4164ZM147.127 77H134.887V81H147.127V77ZM136.736 78.236L132.272 67.436L128.575 68.964L133.039 79.764L136.736 78.236ZM128.599 58.5787L120.607 39.2827L116.911 40.8133L124.903 60.1093L128.599 58.5787ZM116.911 39.2827L108.919 58.5787L112.615 60.1093L120.607 40.8133L116.911 39.2827ZM110.767 61.344H126.751V57.344H110.767V61.344ZM189.307 38.104V40.104H191.292L191.307 38.1191L189.307 38.104ZM165.331 38.104V36.104H163.327L163.331 38.1075L165.331 38.104ZM165.403 79V81H167.406L167.403 78.9965L165.403 79ZM153.811 79H151.811V81H153.811V79ZM153.811 28.6V26.6H151.811V28.6H153.811ZM189.379 28.6L191.379 28.6151L191.394 26.6H189.379V28.6ZM189.307 36.104H165.331V40.104H189.307V36.104ZM163.331 38.1075L163.403 79.0035L167.403 78.9965L167.331 38.1005L163.331 38.1075ZM165.403 77H153.811V81H165.403V77ZM155.811 79V28.6H151.811V79H155.811ZM153.811 30.6H189.379V26.6H153.811V30.6ZM187.379 28.5848L187.307 38.0888L191.307 38.1191L191.379 28.6151L187.379 28.5848ZM232.865 28.6H234.865V26.6H232.865V28.6ZM232.865 79V81H234.865V79H232.865ZM221.201 79H219.201V81H221.201V79ZM221.201 37.96H223.201V35.96H221.201V37.96ZM211.121 37.96H209.121V39.96H211.121V37.96ZM211.121 28.6V26.6H209.121V28.6H211.121ZM230.865 28.6V79H234.865V28.6H230.865ZM232.865 77H221.201V81H232.865V77ZM223.201 79V37.96H219.201V79H223.201ZM221.201 35.96H211.121V39.96H221.201V35.96ZM213.121 37.96V28.6H209.121V37.96H213.121ZM211.121 30.6H232.865V26.6H211.121V30.6Z" fill="#676767"/>
</svg>
